<svg width="71" height="37" viewBox="0 0 71 37" fill="none" xmlns="http://www.w3.org/2000/svg">
<g filter="url(#filter0_i_1_1407)">
<rect x="1" y="2" width="70" height="31.5" rx="15.75" fill="url(#paint0_linear_1_1407)"/>
</g>
<path d="M40.7747 11.0601C40.9451 10.8159 41.3233 10.8825 41.3999 11.1703L41.6709 12.1875C41.702 12.3045 41.7914 12.3971 41.9073 12.4323L42.9145 12.7385C43.1994 12.8251 43.2529 13.2053 43.0029 13.3672L42.1192 13.9392C42.0175 14.005 41.9571 14.1186 41.9594 14.2397L41.9795 15.2922C41.9852 15.59 41.6401 15.7583 41.4089 15.5705L40.5918 14.9068C40.4978 14.8305 40.371 14.8082 40.2566 14.8478L39.2618 15.1921C38.9804 15.2895 38.7136 15.0133 38.8208 14.7354L39.1995 13.7532C39.2431 13.6403 39.2251 13.5128 39.1521 13.4162L38.5172 12.5765C38.3376 12.339 38.5179 11.9999 38.8152 12.0159L39.8664 12.0726C39.9873 12.0791 40.103 12.0227 40.1723 11.9234L40.7747 11.0601Z" fill="url(#paint1_linear_1_1407)"/>
<path d="M32.8325 6.3363C32.8741 6.27678 32.9662 6.29302 32.9849 6.36316L33.051 6.61109C33.0586 6.63961 33.0803 6.66217 33.1086 6.67075L33.3541 6.74537C33.4235 6.76648 33.4365 6.85916 33.3756 6.8986L33.1602 7.03801C33.1354 7.05405 33.1207 7.08175 33.1213 7.11125L33.1262 7.36778C33.1276 7.44035 33.0434 7.48138 32.9871 7.43562L32.788 7.27386C32.7651 7.25525 32.7342 7.2498 32.7063 7.25946L32.4638 7.34338C32.3952 7.36713 32.3302 7.29981 32.3563 7.23208L32.4486 6.99269C32.4592 6.96516 32.4549 6.93409 32.4371 6.91055L32.2823 6.7059C32.2386 6.648 32.2825 6.56536 32.355 6.56927L32.6112 6.58308C32.6406 6.58467 32.6688 6.57091 32.6857 6.54671L32.8325 6.3363Z" fill="url(#paint2_linear_1_1407)"/>
<path d="M50.8571 13.6026C50.9 13.4272 51.1284 13.3823 51.2346 13.5282L51.6101 14.0441C51.6533 14.1034 51.7241 14.1362 51.7973 14.1308L52.4336 14.0837C52.6136 14.0704 52.7269 14.2737 52.6209 14.4198L52.2464 14.9363C52.2033 14.9957 52.194 15.0732 52.2217 15.1411L52.4631 15.7317C52.5314 15.8988 52.3731 16.0694 52.2014 16.0138L51.5944 15.8172C51.5246 15.7945 51.448 15.8096 51.392 15.857L50.9049 16.2691C50.7671 16.3857 50.5559 16.2878 50.5557 16.1073L50.5552 15.4693C50.5551 15.3959 50.5171 15.3278 50.4547 15.2891L49.9123 14.9532C49.7588 14.8581 49.7866 14.6271 49.9583 14.5711L50.5649 14.3734C50.6347 14.3507 50.6877 14.2935 50.7052 14.2222L50.8571 13.6026Z" fill="url(#paint3_linear_1_1407)"/>
<path d="M58.0534 9.49123C58.0775 9.39304 58.2054 9.36786 58.2648 9.44959L58.4751 9.73851C58.4993 9.77174 58.539 9.7901 58.58 9.78707L58.9363 9.76072C59.0372 9.75326 59.1006 9.86711 59.0413 9.94895L58.8315 10.2382C58.8074 10.2715 58.8021 10.3149 58.8177 10.3529L58.9529 10.6837C58.9911 10.7773 58.9025 10.8729 58.8063 10.8417L58.4663 10.7316C58.4272 10.7189 58.3844 10.7273 58.353 10.7539L58.0802 10.9847C58.003 11.05 57.8847 10.9952 57.8846 10.8941L57.8843 10.5367C57.8843 10.4956 57.863 10.4575 57.8281 10.4358L57.5243 10.2477C57.4383 10.1945 57.4539 10.065 57.55 10.0337L57.8898 9.92299C57.9288 9.91025 57.9586 9.87823 57.9683 9.83831L58.0534 9.49123Z" fill="url(#paint4_linear_1_1407)"/>
<path d="M47.3464 5.45172C47.4627 5.40191 47.584 5.51083 47.5471 5.63179L47.4165 6.05936C47.4014 6.10854 47.4129 6.16199 47.4468 6.20068L47.7412 6.53712C47.8245 6.6323 47.7584 6.78141 47.632 6.78364L47.1849 6.79153C47.1335 6.79244 47.0862 6.81985 47.0599 6.86402L46.8309 7.248C46.7661 7.35663 46.6039 7.33987 46.5627 7.22029L46.4171 6.79759C46.4003 6.74898 46.3596 6.71247 46.3095 6.70107L45.8735 6.60195C45.7502 6.5739 45.716 6.41444 45.817 6.33831L46.174 6.06918C46.2151 6.03822 46.2372 5.98824 46.2326 5.93703L46.1921 5.49178C46.1807 5.36582 46.3218 5.28403 46.4254 5.35656L46.7917 5.61292C46.8338 5.64241 46.8882 5.64803 46.9354 5.62778L47.3464 5.45172Z" fill="url(#paint5_linear_1_1407)"/>
<g filter="url(#filter1_d_1_1407)">
<circle cx="16.75" cy="17.75" r="12.25" fill="url(#paint6_linear_1_1407)"/>
<circle cx="16.75" cy="17.75" r="10.15" fill="url(#paint7_linear_1_1407)"/>
</g>
<defs>
<filter id="filter0_i_1_1407" x="1" y="2" width="70" height="37.5" filterUnits="userSpaceOnUse" color-interpolation-filters="sRGB">
<feFlood flood-opacity="0" result="BackgroundImageFix"/>
<feBlend mode="normal" in="SourceGraphic" in2="BackgroundImageFix" result="shape"/>
<feColorMatrix in="SourceAlpha" type="matrix" values="0 0 0 0 0 0 0 0 0 0 0 0 0 0 0 0 0 0 127 0" result="hardAlpha"/>
<feMorphology radius="3" operator="erode" in="SourceAlpha" result="effect1_innerShadow_1_1407"/>
<feOffset dy="6"/>
<feGaussianBlur stdDeviation="4"/>
<feComposite in2="hardAlpha" operator="arithmetic" k2="-1" k3="1"/>
<feColorMatrix type="matrix" values="0 0 0 0 0 0 0 0 0 0 0 0 0 0 0 0 0 0 0.25 0"/>
<feBlend mode="normal" in2="shape" result="effect1_innerShadow_1_1407"/>
</filter>
<filter id="filter1_d_1_1407" x="0.5" y="0.5" width="36.5" height="36.5" filterUnits="userSpaceOnUse" color-interpolation-filters="sRGB">
<feFlood flood-opacity="0" result="BackgroundImageFix"/>
<feColorMatrix in="SourceAlpha" type="matrix" values="0 0 0 0 0 0 0 0 0 0 0 0 0 0 0 0 0 0 127 0" result="hardAlpha"/>
<feOffset dx="2" dy="1"/>
<feGaussianBlur stdDeviation="3"/>
<feColorMatrix type="matrix" values="0 0 0 0 0 0 0 0 0 0 0 0 0 0 0 0 0 0 0.25 0"/>
<feBlend mode="normal" in2="BackgroundImageFix" result="effect1_dropShadow_1_1407"/>
<feBlend mode="normal" in="SourceGraphic" in2="effect1_dropShadow_1_1407" result="shape"/>
</filter>
<linearGradient id="paint0_linear_1_1407" x1="36.875" y1="3.225" x2="36" y2="33.5" gradientUnits="userSpaceOnUse">
<stop stop-color="#2B4485"/>
<stop offset="1" stop-color="#AFCAFF"/>
</linearGradient>
<linearGradient id="paint1_linear_1_1407" x1="41.206" y1="10.4421" x2="40.1731" y2="16.3017" gradientUnits="userSpaceOnUse">
<stop stop-color="#ADDDFF"/>
<stop offset="1" stop-color="#EDF6FF" stop-opacity="0"/>
</linearGradient>
<linearGradient id="paint2_linear_1_1407" x1="32.9376" y1="6.18567" x2="32.6859" y2="7.61383" gradientUnits="userSpaceOnUse">
<stop stop-color="#ADDDFF"/>
<stop offset="1" stop-color="#EDF6FF" stop-opacity="0"/>
</linearGradient>
<linearGradient id="paint3_linear_1_1407" x1="50.9658" y1="13.1589" x2="51.6626" y2="16.6972" gradientUnits="userSpaceOnUse">
<stop stop-color="#ADDDFF"/>
<stop offset="1" stop-color="#EDF6FF" stop-opacity="0"/>
</linearGradient>
<linearGradient id="paint4_linear_1_1407" x1="58.1143" y1="9.24276" x2="58.5045" y2="11.2245" gradientUnits="userSpaceOnUse">
<stop stop-color="#ADDDFF"/>
<stop offset="1" stop-color="#EDF6FF" stop-opacity="0"/>
</linearGradient>
<linearGradient id="paint5_linear_1_1407" x1="47.6406" y1="5.32568" x2="45.953" y2="7.20655" gradientUnits="userSpaceOnUse">
<stop stop-color="#ADDDFF"/>
<stop offset="1" stop-color="#EDF6FF" stop-opacity="0"/>
</linearGradient>
<linearGradient id="paint6_linear_1_1407" x1="16.75" y1="5.5" x2="16.75" y2="30" gradientUnits="userSpaceOnUse">
<stop stop-color="#D6E9FF"/>
<stop offset="1" stop-color="#CDE4FF"/>
</linearGradient>
<linearGradient id="paint7_linear_1_1407" x1="16.75" y1="7.60001" x2="16.75" y2="27.9" gradientUnits="userSpaceOnUse">
<stop stop-color="#CEE5FF"/>
<stop offset="0.9999" stop-color="#EDF6FF"/>
<stop offset="1" stop-color="#F1F9FF"/>
</linearGradient>
</defs>
</svg>
