<svg width="70" height="37" viewBox="0 0 70 37" fill="none" xmlns="http://www.w3.org/2000/svg">
<g filter="url(#filter0_i_1_1501)">
<rect y="1" width="70" height="31.5" rx="15.75" fill="url(#paint0_linear_1_1501)"/>
</g>
<path d="M13.8252 7.2998C15.0235 7.29987 16.087 7.87419 16.7578 8.76172C16.9405 8.72148 17.1304 8.7002 17.3252 8.7002C18.7749 8.7003 19.9502 9.87551 19.9502 11.3252C19.9501 12.7748 18.7748 13.9501 17.3252 13.9502C16.9464 13.9502 16.587 13.868 16.2617 13.7236C15.613 14.2991 14.7605 14.6503 13.8252 14.6504C12.7208 14.6504 11.7303 14.1627 11.0566 13.3916C10.782 13.5235 10.4754 13.5996 10.1504 13.5996C8.99059 13.5996 8.0498 12.6598 8.0498 11.5C8.0498 10.3402 8.99059 9.40039 10.1504 9.40039C10.2662 9.40041 10.3795 9.41163 10.4902 9.42969C11.0739 8.17221 12.3476 7.2998 13.8252 7.2998Z" fill="url(#paint1_linear_1_1501)"/>
<path d="M33.1572 5.2002C33.7914 5.2002 34.3528 5.50499 34.708 5.97461C34.8054 5.95301 34.9069 5.94141 35.0107 5.94141C35.7781 5.94165 36.4004 6.56369 36.4004 7.33105C36.4003 8.09834 35.778 8.72046 35.0107 8.7207C34.8094 8.7207 34.6181 8.67665 34.4453 8.59961C34.1019 8.90398 33.6522 9.09082 33.1572 9.09082C32.5727 9.09078 32.05 8.83193 31.6934 8.42383C31.5475 8.49419 31.3847 8.53513 31.2119 8.53516C30.598 8.53516 30.0998 8.0377 30.0996 7.42383C30.0996 6.80982 30.5979 6.31152 31.2119 6.31152C31.2735 6.31153 31.3337 6.31752 31.3926 6.32715C31.7017 5.66175 32.3752 5.20024 33.1572 5.2002Z" fill="url(#paint2_linear_1_1501)"/>
<path d="M31.0059 11.5C31.9926 11.5 32.8665 11.9743 33.4189 12.7051C33.5701 12.6716 33.7274 12.6533 33.8887 12.6533C35.0823 12.6536 36.0497 13.6208 36.0498 14.8145C36.0498 16.0082 35.0824 16.9763 33.8887 16.9766C33.576 16.9766 33.2791 16.9085 33.0107 16.7891C32.4766 17.2627 31.7759 17.5527 31.0059 17.5527C30.0965 17.5527 29.2833 17.1496 28.7285 16.5146C28.5016 16.6241 28.2483 16.6885 27.9795 16.6885C27.0244 16.6885 26.2501 15.914 26.25 14.959C26.25 14.0039 27.0244 13.2295 27.9795 13.2295C28.0757 13.2295 28.1698 13.2388 28.2617 13.2539C28.7426 12.2188 29.7893 11.5 31.0059 11.5Z" fill="url(#paint3_linear_1_1501)"/>
<g filter="url(#filter1_d_1_1501)">
<circle cx="52.15" cy="17.45" r="12.25" fill="url(#paint4_linear_1_1501)"/>
<circle cx="52.15" cy="17.45" r="10.15" fill="url(#paint5_linear_1_1501)"/>
<circle cx="52.15" cy="17.45" r="12.25" fill="#FF9255"/>
<circle cx="52.15" cy="17.45" r="10.15" fill="url(#paint6_linear_1_1501)"/>
<mask id="mask0_1_1501" style="mask-type:alpha" maskUnits="userSpaceOnUse" x="39" y="5" width="26" height="25">
<circle cx="52.15" cy="17.45" r="12.25" fill="url(#paint7_linear_1_1501)"/>
</mask>
<g mask="url(#mask0_1_1501)">
<path d="M54.775 18.509C61.355 10.809 67.9 10.634 70.35 11.509L74.375 15.3591L70.875 31.9841L45.5 39.8591L31.325 33.3841L29.75 17.9841C35.35 21.3674 48.195 26.209 54.775 18.509Z" fill="url(#paint8_linear_1_1501)"/>
<path d="M51.1 17.4439C36.6812 8.69999 32.4335 11.3583 30.2499 12.7725L27.2166 17.4439L34.4407 32.8209L60.9459 34.6586L73.2553 25.1016L71.2518 9.75143C66.5784 14.3303 60.2804 23.0111 51.1 17.4439Z" fill="url(#paint9_linear_1_1501)"/>
</g>
</g>
<defs>
<filter id="filter0_i_1_1501" x="0" y="1" width="70" height="37.5" filterUnits="userSpaceOnUse" color-interpolation-filters="sRGB">
<feFlood flood-opacity="0" result="BackgroundImageFix"/>
<feBlend mode="normal" in="SourceGraphic" in2="BackgroundImageFix" result="shape"/>
<feColorMatrix in="SourceAlpha" type="matrix" values="0 0 0 0 0 0 0 0 0 0 0 0 0 0 0 0 0 0 127 0" result="hardAlpha"/>
<feMorphology radius="3" operator="erode" in="SourceAlpha" result="effect1_innerShadow_1_1501"/>
<feOffset dy="6"/>
<feGaussianBlur stdDeviation="4"/>
<feComposite in2="hardAlpha" operator="arithmetic" k2="-1" k3="1"/>
<feColorMatrix type="matrix" values="0 0 0 0 0 0 0 0 0 0 0 0 0 0 0 0 0 0 0.25 0"/>
<feBlend mode="normal" in2="shape" result="effect1_innerShadow_1_1501"/>
</filter>
<filter id="filter1_d_1_1501" x="31.9" y="0.199997" width="36.5" height="36.5" filterUnits="userSpaceOnUse" color-interpolation-filters="sRGB">
<feFlood flood-opacity="0" result="BackgroundImageFix"/>
<feColorMatrix in="SourceAlpha" type="matrix" values="0 0 0 0 0 0 0 0 0 0 0 0 0 0 0 0 0 0 127 0" result="hardAlpha"/>
<feOffset dx="-2" dy="1"/>
<feGaussianBlur stdDeviation="3"/>
<feColorMatrix type="matrix" values="0 0 0 0 0 0 0 0 0 0 0 0 0 0 0 0 0 0 0.25 0"/>
<feBlend mode="normal" in2="BackgroundImageFix" result="effect1_dropShadow_1_1501"/>
<feBlend mode="normal" in="SourceGraphic" in2="effect1_dropShadow_1_1501" result="shape"/>
</filter>
<linearGradient id="paint0_linear_1_1501" x1="35" y1="1" x2="35" y2="32.5" gradientUnits="userSpaceOnUse">
<stop stop-color="#66FFED"/>
<stop offset="1" stop-color="#FFEEB2"/>
</linearGradient>
<linearGradient id="paint1_linear_1_1501" x1="14" y1="7.2998" x2="14" y2="14.6504" gradientUnits="userSpaceOnUse">
<stop stop-color="#FFF48F"/>
<stop offset="1" stop-color="#FFFEEA" stop-opacity="0"/>
</linearGradient>
<linearGradient id="paint2_linear_1_1501" x1="33.25" y1="5.2002" x2="33.25" y2="9.09082" gradientUnits="userSpaceOnUse">
<stop stop-color="#FFF48F"/>
<stop offset="1" stop-color="#FFFEEA" stop-opacity="0"/>
</linearGradient>
<linearGradient id="paint3_linear_1_1501" x1="31.1499" y1="11.5" x2="31.1499" y2="17.5527" gradientUnits="userSpaceOnUse">
<stop stop-color="#FFF48F"/>
<stop offset="1" stop-color="#FFFEEA" stop-opacity="0"/>
</linearGradient>
<linearGradient id="paint4_linear_1_1501" x1="52.15" y1="5.2" x2="52.15" y2="29.7" gradientUnits="userSpaceOnUse">
<stop stop-color="#FFC123"/>
<stop offset="1" stop-color="#F8832E"/>
</linearGradient>
<linearGradient id="paint5_linear_1_1501" x1="52.15" y1="7.3" x2="52.15" y2="27.6" gradientUnits="userSpaceOnUse">
<stop stop-color="#FFBF24"/>
<stop offset="1" stop-color="#F4924B"/>
</linearGradient>
<linearGradient id="paint6_linear_1_1501" x1="52.15" y1="7.3" x2="52.15" y2="27.6" gradientUnits="userSpaceOnUse">
<stop stop-color="#FFBF24"/>
<stop offset="1" stop-color="#F4924B"/>
</linearGradient>
<linearGradient id="paint7_linear_1_1501" x1="52.15" y1="5.2" x2="52.15" y2="29.7" gradientUnits="userSpaceOnUse">
<stop stop-color="#FFC123"/>
<stop offset="1" stop-color="#F8832E"/>
</linearGradient>
<linearGradient id="paint8_linear_1_1501" x1="52.0625" y1="11.15" x2="52.0625" y2="39.8591" gradientUnits="userSpaceOnUse">
<stop stop-color="#FF9D55" stop-opacity="0.6"/>
<stop offset="1" stop-color="#FD8A37" stop-opacity="0"/>
</linearGradient>
<linearGradient id="paint9_linear_1_1501" x1="47.9663" y1="8.22367" x2="54.5588" y2="36.1655" gradientUnits="userSpaceOnUse">
<stop stop-color="#FFBD3E" stop-opacity="0.49"/>
<stop offset="1" stop-color="white" stop-opacity="0"/>
</linearGradient>
</defs>
</svg>
